<svg xmlns="http://www.w3.org/2000/svg" width="64" height="64" viewBox="0 0 64 64"><g stroke-linecap="round" stroke-linejoin="round"><rect x="18" y="48" width="29" height="6" rx="2" fill="#8c7650" stroke="#65543d" stroke-width="2"/><path d="M7 34 Q19 52 31 34 Z" fill="#a18a62" stroke="#6d5d42" stroke-width="2"/><path d="M9 34 L29 34" fill="none" stroke="#d5b880" stroke-width="2"/><path d="M25 32 Q18 22 26 12 Q35 27 25 32 Z" fill="#e7bd66" stroke="#b99148" stroke-width="1"/><path d="M26 30 Q23 24 27 19 Q31 26 26 30 Z" fill="#f5dda0" stroke="none" stroke-width="0"/><path d="M32 41 Q44 59 56 41 Z" fill="#a18a62" stroke="#6d5d42" stroke-width="2"/><path d="M34 41 L54 41" fill="none" stroke="#d5b880" stroke-width="2"/><path d="M50 39 Q43 29 51 19 Q60 34 50 39 Z" fill="#e7bd66" stroke="#b99148" stroke-width="1"/><path d="M51 37 Q48 31 52 26 Q56 33 51 37 Z" fill="#f5dda0" stroke="none" stroke-width="0"/></g></svg>