<svg xmlns="http://www.w3.org/2000/svg" width="112" height="100" viewBox="0 0 112 100"><g stroke-linecap="round" stroke-linejoin="round"><path d="M10 24 L96 24 L108 65 L4 65 Z" fill="#9d7d50" stroke="#70583b" stroke-width="3"/><path d="M18 36 L96 36 M14 48 L101 48 M9 59 L104 59" fill="none" stroke="#c1a26e" stroke-width="2"/><path d="M28 64 Q29.62 50.23 31.240000000000002 34.03" fill="none" stroke="#71874d" stroke-width="2.0250000000000004"/><path d="M28.81 53.47 Q16.66 45.37 19.9 41.32 Q27.19 42.129999999999995 29.62 53.47" fill="#71874d" stroke="#71874d" stroke-width="1"/><path d="M29.62 47.8 Q38.53 38.89 40.96 38.89 Q39.34 46.989999999999995 29.62 47.8" fill="#71874d" stroke="#71874d" stroke-width="1"/><path d="M31.240000000000002 36.459999999999994 l-4.050000000000001 -2.43 l3.24 -2.43 l4.86 1.62 Z" fill="#d3b975" stroke="#a38a4c" stroke-width="0.8"/><path d="M28.81 33.22 l-3.24 -8.100000000000001 M33.67 34.03 l4.050000000000001 -7.290000000000001" fill="none" stroke="#d3b975" stroke-width="1"/><path d="M31.240000000000002 33.382000000000005 l-4.050000000000001 -2.43 l3.24 -2.43 l4.86 1.62 Z" fill="#d3b975" stroke="#a38a4c" stroke-width="0.8"/><path d="M28.81 30.142000000000003 l-3.24 -8.100000000000001 M33.67 30.951999999999998 l4.050000000000001 -7.290000000000001" fill="none" stroke="#d3b975" stroke-width="1"/><path d="M31.240000000000002 30.303999999999995 l-4.050000000000001 -2.43 l3.24 -2.43 l4.86 1.62 Z" fill="#d3b975" stroke="#a38a4c" stroke-width="0.8"/><path d="M28.81 27.063999999999993 l-3.24 -8.100000000000001 M33.67 27.873999999999995 l4.050000000000001 -7.290000000000001" fill="none" stroke="#d3b975" stroke-width="1"/><path d="M31.240000000000002 27.226 l-4.050000000000001 -2.43 l3.24 -2.43 l4.86 1.62 Z" fill="#d3b975" stroke="#a38a4c" stroke-width="0.8"/><path d="M28.81 23.985999999999997 l-3.24 -8.100000000000001 M33.67 24.796 l4.050000000000001 -7.290000000000001" fill="none" stroke="#d3b975" stroke-width="1"/><path d="M31.240000000000002 24.147999999999996 l-4.050000000000001 -2.43 l3.24 -2.43 l4.86 1.62 Z" fill="#d3b975" stroke="#a38a4c" stroke-width="0.8"/><path d="M28.81 20.907999999999994 l-3.24 -8.100000000000001 M33.67 21.717999999999996 l4.050000000000001 -7.290000000000001" fill="none" stroke="#d3b975" stroke-width="1"/><path d="M51 60 Q52.62 46.23 54.24 30.029999999999998" fill="none" stroke="#71874d" stroke-width="2.0250000000000004"/><path d="M51.81 49.47 Q39.66 41.37 42.9 37.32 Q50.19 38.129999999999995 52.62 49.47" fill="#71874d" stroke="#71874d" stroke-width="1"/><path d="M52.62 43.8 Q61.53 34.89 63.96 34.89 Q62.34 42.989999999999995 52.62 43.8" fill="#71874d" stroke="#71874d" stroke-width="1"/><path d="M54.24 32.459999999999994 l-4.050000000000001 -2.43 l3.24 -2.43 l4.86 1.62 Z" fill="#d3b975" stroke="#a38a4c" stroke-width="0.8"/><path d="M51.81 29.22 l-3.24 -8.100000000000001 M56.67 30.029999999999998 l4.050000000000001 -7.290000000000001" fill="none" stroke="#d3b975" stroke-width="1"/><path d="M54.24 29.382 l-4.050000000000001 -2.43 l3.24 -2.43 l4.86 1.62 Z" fill="#d3b975" stroke="#a38a4c" stroke-width="0.8"/><path d="M51.81 26.142000000000003 l-3.24 -8.100000000000001 M56.67 26.951999999999998 l4.050000000000001 -7.290000000000001" fill="none" stroke="#d3b975" stroke-width="1"/><path d="M54.24 26.303999999999995 l-4.050000000000001 -2.43 l3.24 -2.43 l4.86 1.62 Z" fill="#d3b975" stroke="#a38a4c" stroke-width="0.8"/><path d="M51.81 23.063999999999993 l-3.24 -8.100000000000001 M56.67 23.873999999999995 l4.050000000000001 -7.290000000000001" fill="none" stroke="#d3b975" stroke-width="1"/><path d="M54.24 23.226 l-4.050000000000001 -2.43 l3.24 -2.43 l4.86 1.62 Z" fill="#d3b975" stroke="#a38a4c" stroke-width="0.8"/><path d="M51.81 19.985999999999997 l-3.24 -8.100000000000001 M56.67 20.796 l4.050000000000001 -7.290000000000001" fill="none" stroke="#d3b975" stroke-width="1"/><path d="M54.24 20.147999999999996 l-4.050000000000001 -2.43 l3.24 -2.43 l4.86 1.62 Z" fill="#d3b975" stroke="#a38a4c" stroke-width="0.8"/><path d="M51.81 16.907999999999994 l-3.24 -8.100000000000001 M56.67 17.717999999999996 l4.050000000000001 -7.290000000000001" fill="none" stroke="#d3b975" stroke-width="1"/><path d="M75 64 Q76.62 50.23 78.24 34.03" fill="none" stroke="#71874d" stroke-width="2.0250000000000004"/><path d="M75.81 53.47 Q63.66 45.37 66.9 41.32 Q74.19 42.129999999999995 76.62 53.47" fill="#71874d" stroke="#71874d" stroke-width="1"/><path d="M76.62 47.8 Q85.53 38.89 87.96000000000001 38.89 Q86.34 46.989999999999995 76.62 47.8" fill="#71874d" stroke="#71874d" stroke-width="1"/><path d="M78.24 36.459999999999994 l-4.050000000000001 -2.43 l3.24 -2.43 l4.86 1.62 Z" fill="#d3b975" stroke="#a38a4c" stroke-width="0.8"/><path d="M75.81 33.22 l-3.24 -8.100000000000001 M80.67 34.03 l4.050000000000001 -7.290000000000001" fill="none" stroke="#d3b975" stroke-width="1"/><path d="M78.24 33.382000000000005 l-4.050000000000001 -2.43 l3.24 -2.43 l4.86 1.62 Z" fill="#d3b975" stroke="#a38a4c" stroke-width="0.8"/><path d="M75.81 30.142000000000003 l-3.24 -8.100000000000001 M80.67 30.951999999999998 l4.050000000000001 -7.290000000000001" fill="none" stroke="#d3b975" stroke-width="1"/><path d="M78.24 30.303999999999995 l-4.050000000000001 -2.43 l3.24 -2.43 l4.86 1.62 Z" fill="#d3b975" stroke="#a38a4c" stroke-width="0.8"/><path d="M75.81 27.063999999999993 l-3.24 -8.100000000000001 M80.67 27.873999999999995 l4.050000000000001 -7.290000000000001" fill="none" stroke="#d3b975" stroke-width="1"/><path d="M78.24 27.226 l-4.050000000000001 -2.43 l3.24 -2.43 l4.86 1.62 Z" fill="#d3b975" stroke="#a38a4c" stroke-width="0.8"/><path d="M75.81 23.985999999999997 l-3.24 -8.100000000000001 M80.67 24.796 l4.050000000000001 -7.290000000000001" fill="none" stroke="#d3b975" stroke-width="1"/><path d="M78.24 24.147999999999996 l-4.050000000000001 -2.43 l3.24 -2.43 l4.86 1.62 Z" fill="#d3b975" stroke="#a38a4c" stroke-width="0.8"/><path d="M75.81 20.907999999999994 l-3.24 -8.100000000000001 M80.67 21.717999999999996 l4.050000000000001 -7.290000000000001" fill="none" stroke="#d3b975" stroke-width="1"/></g></svg>