<svg xmlns="http://www.w3.org/2000/svg" width="64" height="64" viewBox="0 0 64 64"><g stroke-linecap="round" stroke-linejoin="round"><path d="M20 15 L43 15 L40 25 Q57 40 48 58 L15 58 Q8 39 23 25 Z" fill="#cab78a" stroke="#816b48" stroke-width="2.5"/><path d="M19 17 L44 17 M22 22 L41 22" fill="none" stroke="#9f8052" stroke-width="3"/><path d="M29 54 Q29.9 46.35 30.8 37.349999999999994" fill="none" stroke="#71874d" stroke-width="1.125"/><path d="M29.45 48.15 Q22.7 43.65 24.5 41.4 Q28.55 41.85 29.9 48.15" fill="#71874d" stroke="#71874d" stroke-width="1"/><path d="M29.9 45 Q34.85 40.05 36.2 40.05 Q35.3 44.55 29.9 45" fill="#71874d" stroke="#71874d" stroke-width="1"/><path d="M30.8 39.15 Q25.4 36.45 29.45 29.7 Q34.85 31.05 33.95 36.45 Z" fill="#a65846" stroke="#875f40" stroke-width="1.5"/><circle cx="29" cy="37.349999999999994" r="0.675" fill="#d8a065"/><circle cx="30.8" cy="37.349999999999994" r="0.675" fill="#d8a065"/><circle cx="32.6" cy="37.349999999999994" r="0.675" fill="#d8a065"/><circle cx="29" cy="34.65" r="0.675" fill="#d8a065"/><circle cx="30.8" cy="34.65" r="0.675" fill="#d8a065"/><circle cx="32.6" cy="34.65" r="0.675" fill="#d8a065"/><circle cx="29" cy="31.95" r="0.675" fill="#d8a065"/></g></svg>