<svg xmlns="http://www.w3.org/2000/svg" width="160" height="160" viewBox="0 0 160 160"><defs><linearGradient id="wood" x2=".2" y2="1"><stop stop-color="#c19d6a"/><stop offset="1" stop-color="#85623f"/></linearGradient><linearGradient id="cloth" x2=".7" y2="1"><stop stop-color="#d8bb8a"/><stop offset="1" stop-color="#b59462"/></linearGradient><linearGradient id="iron" x2=".7" y2="1"><stop stop-color="#a2aead"/><stop offset="1" stop-color="#4b5c60"/></linearGradient></defs><g stroke-linejoin="round" stroke-linecap="round"><ellipse cx="80" cy="147" rx="60" ry="8" fill="#51442c" opacity=".14" stroke="none" stroke-width="3"/><path d="M17 96 L105 72 L149 117 L58 147Z" fill="#bfa57a" stroke="#624c35" stroke-width="3"/><path d="M24 101 L107 81 M36 114 L122 91 M49 128 L138 107" fill="none" stroke="#947a52" stroke-width="3"/><path d="M41 72 L102 56 L128 80 L66 98Z" fill="#b18c59" stroke="#624c35" stroke-width="3"/><rect x="50" y="90" width="6" height="27" rx="3" fill="#7a5838" stroke="#624c35" stroke-width="3"/><rect x="115" y="83" width="6" height="27" rx="3" fill="#7a5838" stroke="#624c35" stroke-width="3"/><ellipse cx="82" cy="75" rx="19" ry="9" fill="#d6c3a0" stroke="#7d6546" stroke-width="3"/><ellipse cx="82" cy="73" rx="13" ry="5" fill="#c2aa70" stroke="none" stroke-width="3"/><ellipse cx="108" cy="69" rx="8" ry="5" fill="#ae8860" stroke="#7d6546" stroke-width="3"/><path d="M58 78 L74 69 M62 82 L78 73" fill="none" stroke="#705135" stroke-width="2"/></g></svg>